<svg width="273" height="80" viewBox="0 0 273 80" fill="none" xmlns="http://www.w3.org/2000/svg">
    <path d="M22.75 10H9.25C8.55964 10 8 10.5596 8 11.25C8 11.9404 8.55964 12.5 9.25 12.5H22.75C23.4404 12.5 24 11.9404 24 11.25C24 10.5596 23.4404 10 22.75 10Z" fill="#E5E7EB"/>
    <path d="M46.75 10H33.25C32.5596 10 32 10.5596 32 11.25C32 11.9404 32.5596 12.5 33.25 12.5H46.75C47.4404 12.5 48 11.9404 48 11.25C48 10.5596 47.4404 10 46.75 10Z" fill="#E5E7EB"/>
    <path d="M70.75 10H57.25C56.5596 10 56 10.5596 56 11.25C56 11.9404 56.5596 12.5 57.25 12.5H70.75C71.4404 12.5 72 11.9404 72 11.25C72 10.5596 71.4404 10 70.75 10Z" fill="#E5E7EB"/>
    <path d="M21 18H11C9.34315 18 8 19.3431 8 21V29C8 30.6569 9.34315 32 11 32H21C22.6569 32 24 30.6569 24 29V21C24 19.3431 22.6569 18 21 18Z" fill="url(#paint0_linear_54_14)"/>
    <path d="M21 36H11C9.34315 36 8 37.3431 8 39V47C8 48.6569 9.34315 50 11 50H21C22.6569 50 24 48.6569 24 47V39C24 37.3431 22.6569 36 21 36Z" fill="url(#paint1_linear_54_14)"/>
    <path d="M21 54H11C9.34315 54 8 55.3431 8 57V65C8 66.6569 9.34315 68 11 68H21C22.6569 68 24 66.6569 24 65V57C24 55.3431 22.6569 54 21 54Z" fill="url(#paint2_linear_54_14)"/>
    <path d="M45 18H35C33.3431 18 32 19.3431 32 21V29C32 30.6569 33.3431 32 35 32H45C46.6569 32 48 30.6569 48 29V21C48 19.3431 46.6569 18 45 18Z" fill="url(#paint3_linear_54_14)"/>
    <path d="M45 36H35C33.3431 36 32 37.3431 32 39V47C32 48.6569 33.3431 50 35 50H45C46.6569 50 48 48.6569 48 47V39C48 37.3431 46.6569 36 45 36Z" fill="url(#paint4_linear_54_14)"/>
    <path d="M69 18H59C57.3431 18 56 19.3431 56 21V29C56 30.6569 57.3431 32 59 32H69C70.6569 32 72 30.6569 72 29V21C72 19.3431 70.6569 18 69 18Z" fill="url(#paint5_linear_54_14)"/>
    <path d="M69 36H59C57.3431 36 56 37.3431 56 39V47C56 48.6569 57.3431 50 59 50H69C70.6569 50 72 48.6569 72 47V39C72 37.3431 70.6569 36 69 36Z" fill="url(#paint6_linear_54_14)"/>
    <path d="M86.402 47V19.3636H104.7V24.1811H92.245V30.7663H103.486V35.5838H92.245V47H86.402ZM114.271 19.3636V47H108.523V19.3636H114.271ZM128.241 47.4048C126.145 47.4048 124.332 46.9595 122.803 46.0689C121.283 45.1693 120.109 43.9188 119.281 42.3175C118.453 40.7071 118.039 38.8404 118.039 36.7173C118.039 34.5762 118.453 32.705 119.281 31.1037C120.109 29.4934 121.283 28.2429 122.803 27.3523C124.332 26.4527 126.145 26.0028 128.241 26.0028C130.337 26.0028 132.145 26.4527 133.666 27.3523C135.195 28.2429 136.374 29.4934 137.201 31.1037C138.029 32.705 138.443 34.5762 138.443 36.7173C138.443 38.8404 138.029 40.7071 137.201 42.3175C136.374 43.9188 135.195 45.1693 133.666 46.0689C132.145 46.9595 130.337 47.4048 128.241 47.4048ZM128.268 42.9517C129.222 42.9517 130.018 42.6818 130.657 42.142C131.295 41.5933 131.777 40.8466 132.1 39.902C132.433 38.9574 132.6 37.8823 132.6 36.6768C132.6 35.4714 132.433 34.3963 132.1 33.4517C131.777 32.5071 131.295 31.7604 130.657 31.2116C130.018 30.6629 129.222 30.3885 128.268 30.3885C127.306 30.3885 126.496 30.6629 125.839 31.2116C125.191 31.7604 124.701 32.5071 124.368 33.4517C124.044 34.3963 123.882 35.4714 123.882 36.6768C123.882 37.8823 124.044 38.9574 124.368 39.902C124.701 40.8466 125.191 41.5933 125.839 42.142C126.496 42.6818 127.306 42.9517 128.268 42.9517ZM145.75 47L140.109 26.2727H145.925L149.137 40.1989H149.326L152.673 26.2727H158.381L161.781 40.1179H161.957L165.114 26.2727H170.917L165.29 47H159.204L155.641 33.9645H155.385L151.822 47H145.75ZM185.13 26.2727V30.5909H172.337V26.2727H185.13ZM175.265 47V24.7749C175.265 23.2725 175.558 22.0265 176.143 21.0369C176.736 20.0473 177.546 19.3052 178.572 18.8104C179.597 18.3156 180.762 18.0682 182.067 18.0682C182.948 18.0682 183.753 18.1357 184.482 18.2706C185.22 18.4055 185.769 18.527 186.128 18.6349L185.103 22.9531C184.878 22.8812 184.599 22.8137 184.266 22.7507C183.942 22.6877 183.609 22.6562 183.268 22.6562C182.422 22.6562 181.833 22.8542 181.5 23.25C181.167 23.6368 181.001 24.1811 181.001 24.8828V47H175.265ZM197.265 47.4048C195.168 47.4048 193.356 46.9595 191.826 46.0689C190.306 45.1693 189.132 43.9188 188.304 42.3175C187.477 40.7071 187.063 38.8404 187.063 36.7173C187.063 34.5762 187.477 32.705 188.304 31.1037C189.132 29.4934 190.306 28.2429 191.826 27.3523C193.356 26.4527 195.168 26.0028 197.265 26.0028C199.361 26.0028 201.169 26.4527 202.689 27.3523C204.219 28.2429 205.397 29.4934 206.225 31.1037C207.052 32.705 207.466 34.5762 207.466 36.7173C207.466 38.8404 207.052 40.7071 206.225 42.3175C205.397 43.9188 204.219 45.1693 202.689 46.0689C201.169 46.9595 199.361 47.4048 197.265 47.4048ZM197.292 42.9517C198.245 42.9517 199.041 42.6818 199.68 42.142C200.319 41.5933 200.8 40.8466 201.124 39.902C201.457 38.9574 201.623 37.8823 201.623 36.6768C201.623 35.4714 201.457 34.3963 201.124 33.4517C200.8 32.5071 200.319 31.7604 199.68 31.2116C199.041 30.6629 198.245 30.3885 197.292 30.3885C196.329 30.3885 195.519 30.6629 194.863 31.2116C194.215 31.7604 193.725 32.5071 193.392 33.4517C193.068 34.3963 192.906 35.4714 192.906 36.6768C192.906 37.8823 193.068 38.9574 193.392 39.902C193.725 40.8466 194.215 41.5933 194.863 42.142C195.519 42.6818 196.329 42.9517 197.292 42.9517ZM211.204 47V26.2727H216.777V29.8892H216.993C217.371 28.6027 218.005 27.6312 218.896 26.9744C219.787 26.3087 220.812 25.9759 221.973 25.9759C222.261 25.9759 222.571 25.9938 222.904 26.0298C223.237 26.0658 223.529 26.1153 223.781 26.1783V31.2791C223.511 31.1982 223.138 31.1262 222.661 31.0632C222.184 31.0002 221.748 30.9688 221.352 30.9688C220.506 30.9688 219.751 31.1532 219.085 31.522C218.428 31.8819 217.906 32.3857 217.52 33.0334C217.142 33.6811 216.953 34.4278 216.953 35.2734V47H211.204ZM235.126 55.2045C233.264 55.2045 231.667 54.9482 230.336 54.4354C229.013 53.9316 227.961 53.2434 227.178 52.3707C226.395 51.4981 225.887 50.5175 225.653 49.429L230.97 48.7138C231.132 49.1276 231.388 49.5144 231.739 49.8743C232.09 50.2341 232.553 50.522 233.129 50.7379C233.714 50.9628 234.425 51.0753 235.261 51.0753C236.512 51.0753 237.542 50.7694 238.351 50.1577C239.17 49.5549 239.579 48.5429 239.579 47.1214V43.3295H239.336C239.085 43.9053 238.707 44.4496 238.203 44.9624C237.699 45.4751 237.051 45.8935 236.26 46.2173C235.468 46.5412 234.523 46.7031 233.426 46.7031C231.87 46.7031 230.453 46.3433 229.175 45.6236C227.907 44.8949 226.895 43.7839 226.139 42.2905C225.392 40.7881 225.019 38.8899 225.019 36.5959C225.019 34.2479 225.401 32.2867 226.166 30.7124C226.931 29.138 227.947 27.9595 229.216 27.1768C230.493 26.3942 231.892 26.0028 233.412 26.0028C234.573 26.0028 235.545 26.2008 236.327 26.5966C237.11 26.9834 237.74 27.4692 238.216 28.054C238.702 28.6297 239.076 29.1965 239.336 29.7543H239.552V26.2727H245.26V47.2024C245.26 48.9657 244.829 50.4411 243.965 51.6286C243.101 52.8161 241.905 53.7067 240.376 54.3004C238.855 54.9032 237.105 55.2045 235.126 55.2045ZM235.248 42.3849C236.174 42.3849 236.957 42.1555 237.596 41.6967C238.243 41.2289 238.738 40.5632 239.08 39.6996C239.431 38.8269 239.606 37.7834 239.606 36.5689C239.606 35.3544 239.435 34.3018 239.094 33.4112C238.752 32.5116 238.257 31.8144 237.609 31.3196C236.961 30.8248 236.174 30.5774 235.248 30.5774C234.303 30.5774 233.507 30.8338 232.859 31.3466C232.211 31.8504 231.721 32.5521 231.388 33.4517C231.055 34.3513 230.889 35.3904 230.889 36.5689C230.889 37.7654 231.055 38.8 231.388 39.6726C231.73 40.5362 232.22 41.2064 232.859 41.6832C233.507 42.151 234.303 42.3849 235.248 42.3849ZM259.281 47.4048C257.149 47.4048 255.314 46.973 253.775 46.1094C252.246 45.2367 251.068 44.0043 250.24 42.4119C249.412 40.8106 248.998 38.9169 248.998 36.7308C248.998 34.5987 249.412 32.7275 250.24 31.1172C251.068 29.5069 252.233 28.2519 253.735 27.3523C255.246 26.4527 257.019 26.0028 259.052 26.0028C260.419 26.0028 261.692 26.2232 262.871 26.6641C264.058 27.0959 265.093 27.7481 265.974 28.6207C266.865 29.4934 267.558 30.5909 268.052 31.9134C268.547 33.2268 268.795 34.7652 268.795 36.5284V38.1072H251.292V34.5447H263.383C263.383 33.7171 263.203 32.9839 262.844 32.3452C262.484 31.7064 261.984 31.2071 261.346 30.8473C260.716 30.4785 259.983 30.294 259.146 30.294C258.273 30.294 257.5 30.4964 256.825 30.9013C256.159 31.2971 255.638 31.8324 255.26 32.5071C254.882 33.1728 254.689 33.915 254.68 34.7337V38.1207C254.68 39.1463 254.868 40.0324 255.246 40.7791C255.633 41.5258 256.177 42.1016 256.879 42.5064C257.581 42.9112 258.413 43.1136 259.376 43.1136C260.014 43.1136 260.599 43.0237 261.13 42.8438C261.661 42.6638 262.115 42.3939 262.493 42.0341C262.871 41.6742 263.158 41.2334 263.356 40.7116L268.673 41.0625C268.403 42.34 267.85 43.4555 267.013 44.4091C266.186 45.3537 265.115 46.0914 263.802 46.6222C262.497 47.1439 260.99 47.4048 259.281 47.4048Z" fill="black"/>
    <defs>
        <linearGradient id="paint0_linear_54_14" x1="8" y1="18" x2="1395.61" y2="1603.84" gradientUnits="userSpaceOnUse">
            <stop stop-color="#A3B4FF"/>
            <stop offset="1" stop-color="#3B82F6"/>
        </linearGradient>
        <linearGradient id="paint1_linear_54_14" x1="8" y1="36" x2="1395.61" y2="1621.84" gradientUnits="userSpaceOnUse">
            <stop stop-color="#615FFF"/>
            <stop offset="1" stop-color="#2563EB"/>
        </linearGradient>
        <linearGradient id="paint2_linear_54_14" x1="8" y1="54" x2="1395.61" y2="1639.84" gradientUnits="userSpaceOnUse">
            <stop stop-color="#432DD7"/>
            <stop offset="1" stop-color="#1D4ED8"/>
        </linearGradient>
        <linearGradient id="paint3_linear_54_14" x1="32" y1="18" x2="1419.61" y2="1603.84" gradientUnits="userSpaceOnUse">
            <stop stop-color="#22D3EE"/>
            <stop offset="1" stop-color="#06B6D4"/>
        </linearGradient>
        <linearGradient id="paint4_linear_54_14" x1="32" y1="36" x2="1419.61" y2="1621.84" gradientUnits="userSpaceOnUse">
            <stop stop-color="#06B6D4"/>
            <stop offset="1" stop-color="#0891B2"/>
        </linearGradient>
        <linearGradient id="paint5_linear_54_14" x1="56" y1="18" x2="1443.61" y2="1603.84" gradientUnits="userSpaceOnUse">
            <stop stop-color="#34D399"/>
            <stop offset="1" stop-color="#10B981"/>
        </linearGradient>
        <linearGradient id="paint6_linear_54_14" x1="56" y1="36" x2="1443.61" y2="1621.84" gradientUnits="userSpaceOnUse">
            <stop stop-color="#10B981"/>
            <stop offset="1" stop-color="#059669"/>
        </linearGradient>
    </defs>
</svg>
